# xmcd
#
# Track frame offsets:
#	183
#	16308
#	32758
#	48145
#	60140
#	72608
#	89680
#	106648
#	114165
#	119075
#	126050
#	140370
#	159145
#	171685
#	189585
#	205705
#	218238
#	235328
#	250660
#	265898
#	279973
#	284310
#	289638
#	300995
#
# Disc length: 4207 seconds
#
# Revision: 2
# Processed by: cddbd v1.5.1PL0 Copyright (c) Steve Scherf et al.
# Submitted via: EasyCDDAExtractor 8.0.1.1
#
DISCID=51106d18
DTITLE=Barney O'Shamrock - The Irish Accordian
DYEAR=1989
DGENRE=Easy Listening
TTITLE0=Slievenamon
TTITLE1=Old Flames
TTITLE2=Doonaree
TTITLE3=The Rose Of Tralee
TTITLE4=The Banks of My Own Lovely Lee
TTITLE5=The Rose Of Mooncoin
TTITLE6=Wild Colonial Boy
TTITLE7=How Can You Buy Killarney
TTITLE8=When Irish Eyes Are Smiling
TTITLE9=Did Your Mother Come From Ireland
TTITLE10=Rare Ould Times
TTITLE11=I'll Take You Home Again Kathleen
TTITLE12=Maggie
TTITLE13=The Fields Of Athenry
TTITLE14=Galway Bay
TTITLE15=Molly Malone
TTITLE16=Bunch Of Thyme
TTITLE17=Danny Boy
TTITLE18=The Old Bog Road
TTITLE19=40 Shades of Green
TTITLE20=Hannigan's Hooley
TTITLE21=If You're Irish/Macnamara's Band
TTITLE22=Delaney's Donkey
TTITLE23=Barney O'Shamrock Dance
EXTD=
EXTT0=
EXTT1=
EXTT2=
EXTT3=
EXTT4=
EXTT5=
EXTT6=
EXTT7=
EXTT8=
EXTT9=
EXTT10=
EXTT11=
EXTT12=
EXTT13=
EXTT14=
EXTT15=
EXTT16=
EXTT17=
EXTT18=
EXTT19=
EXTT20=
EXTT21=
EXTT22=
EXTT23=
PLAYORDER=
